<svg width="64" height="72" viewBox="0 0 64 72" fill="none" xmlns="http://www.w3.org/2000/svg">
<path d="M31.5771 34.9134C31.093 33.3337 31.873 31.7561 33.074 31.1549C34.3804 30.5009 36.4027 30.599 37.6022 32.9316C37.1697 31.166 38.1622 29.7228 39.3132 29.2037C40.6877 28.5831 42.6379 28.9959 43.6686 31.0672C43.583 30.4988 43.5303 30.003 43.6503 29.5122C43.9582 28.2552 44.75 27.4332 45.9856 27.1504C47.3798 26.832 48.5204 27.3638 49.3128 28.5415C50.0803 29.6822 50.7796 30.8707 51.5019 32.0419C52.3007 33.3363 53.1116 34.6228 53.7727 35.999C54.5711 37.6601 55.1738 39.3846 55.6307 41.1716C56.4219 44.2684 56.4042 47.4007 56.1703 50.5451C56.0695 51.8985 55.4169 52.9821 54.2896 53.7108C52.0778 55.1407 49.8478 56.5441 47.6019 57.9203C46.9447 58.3227 46.1722 58.4609 45.4006 58.5284C43.4502 58.6995 41.5377 58.4304 39.6367 58.0107C35.8376 57.1715 32.3162 55.6091 28.9012 53.7764C27.2588 52.8948 25.6275 51.9923 24.0511 50.9933C22.1605 49.7946 22.0842 47.0607 23.9275 45.826C24.9752 45.1247 26.0907 45.122 27.1851 45.7225C28.7117 46.5593 30.2169 47.4364 31.732 48.295C31.899 48.3897 32.0768 48.4891 32.2505 48.3151C32.4737 48.092 32.2933 47.8973 32.1803 47.7157C30.9672 45.7687 29.7478 43.826 28.5317 41.8807C25.59 37.1746 22.6464 32.4692 19.7082 27.7612C18.6716 26.0999 19.1238 24.2099 20.7813 23.2145C22.0569 22.4487 23.9289 22.85 24.7939 24.1457C25.7622 25.5971 26.6651 27.0925 27.5932 28.5707C28.8659 30.5982 30.1354 32.6282 31.4065 34.657C31.4518 34.731 31.5029 34.803 31.5771 34.9134Z" fill="#FCEE21"/>
<path d="M22.9533 18.1154C22.8519 17.8792 22.8737 17.6133 22.9346 17.348C23.3028 15.7363 23.6681 14.1241 24.0431 12.5135C24.204 11.8221 24.8117 11.4219 25.49 11.5383C26.1014 11.643 26.5653 12.2593 26.462 12.9351C26.3468 13.6847 26.1606 14.4233 26.0004 15.1657C25.807 16.0613 25.6143 16.9567 25.4086 17.8494C25.2227 18.6563 24.6838 19.0655 23.9574 18.9735C23.484 18.9144 23.1247 18.6129 22.9533 18.1154Z" fill="#FCEE21"/>
<path d="M15.2421 23.6719C15.4062 24.1669 15.2857 24.5745 14.9851 24.9455C14.6483 25.361 14.1971 25.4294 13.7168 25.3236C12.4996 25.0546 11.2878 24.7646 10.0732 24.4826C9.6937 24.3946 9.31137 24.3168 8.93612 24.2144C8.19897 24.0137 7.79495 23.3909 7.94123 22.7024C8.07813 22.0542 8.73095 21.627 9.45711 21.7816C11.1002 22.1318 12.7368 22.5142 14.3743 22.8913C14.8102 22.9911 15.0835 23.2889 15.2421 23.6719Z" fill="#FCEE21"/>
<path d="M29.8148 22.6457C29.1857 22.8597 28.5527 22.6087 28.2795 22.0781C27.9655 21.4684 28.0879 20.8436 28.6453 20.4836C30.0726 19.5621 31.5066 18.6497 32.9531 17.7593C33.5899 17.3675 34.2893 17.5571 34.6688 18.162C35.0182 18.719 34.8721 19.4323 34.2681 19.8292C32.8573 20.7556 31.4286 21.6548 30.0049 22.5622C29.9301 22.6094 29.8425 22.634 29.8148 22.6457Z" fill="#FCEE21"/>
<path d="M18.9291 18.3901C19.1398 19.0014 18.9069 19.6337 18.4169 19.8921C17.8335 20.1993 17.1486 20.0659 16.8125 19.5414C15.8716 18.0733 14.9396 16.6001 14.0185 15.1195C13.6543 14.5342 13.8386 13.8005 14.4017 13.4428C14.9858 13.0721 15.6802 13.2085 16.066 13.8092C16.9964 15.2573 17.9094 16.7165 18.8268 18.172C18.8805 18.2559 18.9129 18.3536 18.9291 18.3901Z" fill="#FCEE21"/>
<path d="M9.73371 33.5799C9.54254 33.0373 9.74439 32.4727 10.2981 32.1103C11.3201 31.4429 12.3529 30.7924 13.3816 30.1363C13.7462 29.9034 14.1093 29.6682 14.4795 29.4433C15.0944 29.0698 15.8093 29.2369 16.2018 29.8366C16.5725 30.404 16.4139 31.1202 15.7949 31.5265C14.8213 32.1665 13.8342 32.7855 12.8527 33.4126C12.4227 33.6873 11.9933 33.9639 11.5599 34.2327C10.8686 34.6611 10.0049 34.3497 9.73371 33.5799Z" fill="#FCEE21"/>
</svg>
