<svg width="168" height="36" viewBox="0 0 168 36" fill="none" xmlns="http://www.w3.org/2000/svg">
<path d="M110.38 30.3785C109.18 30.3785 108.208 29.4167 108.208 28.2287C108.208 22.9631 103.876 18.6772 98.5543 18.6772C93.2327 18.6772 88.9011 22.9631 88.9011 28.2287C88.9011 29.4167 87.9292 30.3785 86.7287 30.3785C85.5279 30.3785 84.556 29.4167 84.556 28.2287C84.556 20.5916 90.8358 14.3777 98.5543 14.3777C106.273 14.3777 112.553 20.5916 112.553 28.2287C112.553 29.4167 111.581 30.3785 110.38 30.3785Z" fill="white"/>
<path d="M143.793 30.3785C143.231 30.3785 142.668 30.1682 142.238 29.7496L130.268 18.0485C129.409 17.209 129.409 15.8468 130.268 15.0073C131.127 14.1678 132.518 14.1678 133.379 15.0073L143.793 25.1877L154.207 15.0073C155.066 14.1678 156.457 14.1678 157.318 15.0073C158.177 15.8468 158.177 17.209 157.318 18.0485L145.349 29.7496C144.918 30.1682 144.356 30.3785 143.793 30.3785Z" fill="white"/>
<path d="M121.259 30.3785C120.033 30.3785 119.04 29.417 119.04 28.2293V16.1865C119.04 14.9988 120.033 14.0372 121.259 14.0372C122.486 14.0372 123.478 14.9988 123.478 16.1865V28.2293C123.478 29.417 122.486 30.3785 121.259 30.3785Z" fill="white"/>
<path d="M121.432 10.8494C123.047 10.8494 124.357 9.54001 124.357 7.92472C124.357 6.30944 123.047 5 121.432 5C119.817 5 118.507 6.30944 118.507 7.92472C118.507 9.54001 119.817 10.8494 121.432 10.8494Z" fill="white"/>
<path d="M160.985 30.3476C162.601 30.3476 163.91 29.0382 163.91 27.4229C163.91 25.8076 162.601 24.4982 160.985 24.4982C159.37 24.4982 158.061 25.8076 158.061 27.4229C158.061 29.0382 159.37 30.3476 160.985 30.3476Z" fill="white"/>
<path d="M70.8414 31.0607C69.6768 31.0607 68.5119 30.8342 67.4 30.3816C65.1348 29.4602 63.3624 27.707 62.4093 25.4457C61.4564 23.1845 61.438 20.69 62.3588 18.4149C63.275 16.1421 65.022 14.3636 67.2735 13.4074C69.5247 12.4512 72.0132 12.4327 74.2806 13.3566C76.5457 14.2782 78.3181 16.0312 79.2713 18.2925C79.7178 19.3503 79.2228 20.5699 78.1707 21.0156L67.4415 25.5681C67.8788 25.9722 68.3899 26.2981 68.9562 26.529C70.1968 27.0349 71.5597 27.0232 72.7912 26.5012C73.9307 26.0185 74.8491 25.1339 75.3739 24.0114C75.8597 22.972 77.0936 22.5262 78.1295 23.0136C79.1654 23.5009 79.6097 24.7389 79.1239 25.7783C78.1641 27.8293 76.4858 29.4462 74.4048 30.3309C73.2586 30.8181 72.05 31.0607 70.8414 31.0607ZM68.8871 17.2369C67.6557 17.7612 66.698 18.7336 66.1939 19.9786C65.9635 20.5468 65.8415 21.1427 65.8253 21.7386L74.2368 18.1701C73.7995 17.7659 73.2862 17.4494 72.7221 17.2092C72.0361 16.9182 70.5559 16.5255 68.8871 17.2369Z" fill="white"/>
<path d="M55.0406 14.3467C53.8262 14.3467 52.8432 15.3084 52.8432 16.4965C52.8432 21.7622 48.4622 26.048 43.0799 26.048C37.6973 26.048 33.3163 21.7622 33.3163 16.4965C33.3163 15.3084 32.3334 14.3467 31.1189 14.3467C29.9047 14.3467 28.9215 15.3084 28.9215 16.4965C28.9215 21.7622 24.5407 26.048 19.1582 26.048C13.7757 26.048 9.3948 21.7622 9.3948 16.4965C9.3948 15.3084 8.41176 14.3467 7.19739 14.3467C5.98304 14.3467 5 15.3084 5 16.4965C5 24.1337 11.3516 30.3476 19.1582 30.3476C24.1868 30.3476 28.607 27.768 31.1189 23.8938C33.6311 27.768 38.0536 30.3476 43.0799 30.3476C50.8864 30.3476 57.2381 24.1337 57.2381 16.4965C57.2381 15.3084 56.2548 14.3467 55.0406 14.3467Z" fill="white"/>
</svg>
